<?xml version="1.0" standalone="no"?>
<!DOCTYPE svg PUBLIC "-//W3C//DTD SVG 1.1//EN" "http://www.w3.org/Graphics/SVG/1.1/DTD/svg11.dtd" >
<svg xmlns="http://www.w3.org/2000/svg" xmlns:xlink="http://www.w3.org/1999/xlink" version="1.1">
<metadata>
Created by FontForge 20161013 at Sun Dec 22 00:03:45 2013
 By ,,,
Generated in 2013 by FontLab Studio. Copyright info pending.
</metadata>
<defs>
<font id="Biko-Light" horiz-adv-x="682" >
  <font-face 
    font-family="Biko"
    font-weight="300"
    font-stretch="normal"
    units-per-em="1000"
    panose-1="2 0 0 0 0 0 0 0 0 0"
    ascent="750"
    descent="-250"
    x-height="468"
    cap-height="712"
    bbox="-92 -276 1019 908"
    underline-thickness="50"
    underline-position="-200"
    unicode-range="U+0020-2212"
  />
<missing-glyph horiz-adv-x="230" 
 />
    <glyph glyph-name=".notdef" horiz-adv-x="230" 
 />
    <glyph glyph-name=".null" horiz-adv-x="0" 
 />
    <glyph glyph-name="nonmarkingreturn" horiz-adv-x="333" 
 />
    <glyph glyph-name="space" unicode=" " horiz-adv-x="230" 
 />
    <glyph glyph-name="exclam" unicode="!" horiz-adv-x="267" 
d="M153 734v-571h-40v571h40zM133 0q-13 0 -22.5 9t-9.5 23q0 13 9.5 22.5t22.5 9.5t22.5 -9t9.5 -23t-9.5 -23t-22.5 -9z" />
    <glyph glyph-name="quotedbl" unicode="&#x22;" horiz-adv-x="211" 
d="M80 712v-138h-39v138h39zM169 712v-138h-40v138h40z" />
    <glyph glyph-name="numbersign" unicode="#" horiz-adv-x="530" 
d="M351 18h-32l16 80h-193l-16 -80h-33l16 80h-81l7 32h81l37 194h-80l6 32h82l16 82h32l-16 -82h194l16 82h32l-16 -82h80l-6 -32h-80l-39 -194h81l-7 -32h-81zM187 324l-39 -194h194l37 194h-192z" />
    <glyph glyph-name="dollar" unicode="$" horiz-adv-x="545" 
d="M446 308q69 -47 69 -118q0 -83 -72 -141q-66 -52 -159 -55v-34h-40v35q-81 8 -140 54q-73 59 -73 141h40q0 -59 49.5 -103t123.5 -52v321l-9 3q-102 41 -140 67q-64 46 -64 116q0 83 73 140q58 47 140 55v35h40v-34q80 -3 139 -57q62 -57 62 -139h-40q0 62 -46.5 107
t-114.5 49v-315q4 -1 10.5 -3.5t10.5 -4.5q100 -38 141 -67zM71 542q0 -48 39.5 -77t133.5 -66v298q-74 -8 -123.5 -52.5t-49.5 -102.5zM284 34q80 3 135.5 48t55.5 108q0 18 -6 34t-20.5 30t-27.5 23.5t-39.5 22t-42.5 19t-49 19.5q-1 0 -3 1t-3 1v-306z" />
    <glyph glyph-name="percent" unicode="%" 
d="M222 0h-43l275 712h42zM463 0q-42 0 -72 30t-30 73t30 73t72 30q43 0 73 -30t30 -73t-30 -73t-73 -30zM463 170q-27 0 -46.5 -19.5t-19.5 -47.5t19.5 -47.5t46.5 -19.5q28 0 47.5 19.5t19.5 47.5t-19.5 47.5t-47.5 19.5zM213 506q-43 0 -73 30t-30 72q0 43 30 73t73 30
q42 0 72.5 -30t30.5 -73q0 -42 -30.5 -72t-72.5 -30zM213 675q-28 0 -47.5 -19.5t-19.5 -47.5q0 -27 19.5 -46.5t47.5 -19.5t47.5 19.5t19.5 46.5q0 28 -19.5 47.5t-47.5 19.5z" />
    <glyph glyph-name="ampersand" unicode="&#x26;" horiz-adv-x="770" 
 />
    <glyph glyph-name="quotesingle" unicode="'" horiz-adv-x="160" 
d="M101 712v-138h-40v138h40z" />
    <glyph glyph-name="parenleft" unicode="(" horiz-adv-x="329" 
d="M280 -23v-36q-33 7 -67 33q-36 28 -70 91q-62 122 -62 293q0 170 62 292q33 59 70 92q32 24 67 32v-36q-62 -19 -105 -104q-60 -112 -60 -276t60 -278q44 -84 105 -103z" />
    <glyph glyph-name="parenright" unicode=")" horiz-adv-x="329" 
d="M47 -59v36q61 19 105 103v1q60 115 60 277q0 161 -60 276q-43 85 -105 104v36q36 -8 65 -32q42 -34 70 -92h1v-1q63 -118 63 -291t-63 -293q-31 -60 -70 -91h-1q-30 -25 -65 -33z" />
    <glyph glyph-name="asterisk" unicode="*" horiz-adv-x="205" 
d="M87 563v40l-27 -28l-21 21l28 27h-40v30h40l-28 28l21 21l27 -28v39h30v-39l28 28l21 -21l-28 -28h39v-30h-39l28 -27l-21 -21l-28 28v-40h-30z" />
    <glyph glyph-name="plus" unicode="+" horiz-adv-x="400" 
d="M219 79h-36v132h-132v36h132v132h36v-132h132v-36h-132v-132z" />
    <glyph glyph-name="comma" unicode="," horiz-adv-x="180" 
d="M106 64q14 0 24.5 -10t10.5 -25q0 -19 -16 -29l-52 -55h-39l53 56q-15 10 -15 28q0 14 10 24.5t24 10.5z" />
    <glyph glyph-name="hyphen" unicode="-" horiz-adv-x="401" 
d="M350 213h-301v32h301v-32z" />
    <glyph glyph-name="period" unicode="." horiz-adv-x="182" 
d="M90 -5q-14 0 -24 10t-10 24t10 24.5t24 10.5t24.5 -10t10.5 -25q0 -14 -10 -24t-25 -10z" />
    <glyph glyph-name="slash" unicode="/" horiz-adv-x="386" 
d="M75 0h-42l274 712h43z" />
    <glyph glyph-name="zero" unicode="0" horiz-adv-x="600" 
 />
    <glyph glyph-name="one" unicode="1" horiz-adv-x="346" 
 />
    <glyph glyph-name="two" unicode="2" horiz-adv-x="487" 
 />
    <glyph glyph-name="three" unicode="3" horiz-adv-x="497" 
 />
    <glyph glyph-name="four" unicode="4" horiz-adv-x="584" 
 />
    <glyph glyph-name="five" unicode="5" horiz-adv-x="507" 
 />
    <glyph glyph-name="six" unicode="6" horiz-adv-x="523" 
 />
    <glyph glyph-name="seven" unicode="7" horiz-adv-x="452" 
 />
    <glyph glyph-name="eight" unicode="8" horiz-adv-x="537" 
 />
    <glyph glyph-name="nine" unicode="9" horiz-adv-x="521" 
 />
    <glyph glyph-name="colon" unicode=":" horiz-adv-x="214" 
d="M108 -5q-14 0 -24 10t-10 24t10 24.5t24 10.5t24.5 -10t10.5 -25q0 -14 -10 -24t-25 -10zM108 190q-14 0 -24 10t-10 24t10 24.5t24 10.5t24.5 -10t10.5 -25q0 -14 -10 -24t-25 -10z" />
    <glyph glyph-name="semicolon" unicode=";" horiz-adv-x="243" 
d="M137 64q14 0 24.5 -10t10.5 -25q0 -19 -16 -29l-52 -55h-39l53 56q-15 10 -15 28q0 14 10 24.5t24 10.5zM137 190q-14 0 -24 10t-10 24t10 24.5t24 10.5t24.5 -10t10.5 -25q0 -14 -10 -24t-25 -10z" />
    <glyph glyph-name="less" unicode="&#x3c;" horiz-adv-x="312" 
d="M269 86l-232 128v31l232 129v-44l-189 -100l189 -100v-44z" />
    <glyph glyph-name="equal" unicode="=" horiz-adv-x="401" 
d="M347 126h-299v32h299v-32zM347 303h-299v32h299v-32z" />
    <glyph glyph-name="greater" unicode="&#x3e;" horiz-adv-x="312" 
d="M40 373l232 -128v-31l-232 -129v44l189 100l-189 100v44z" />
    <glyph glyph-name="question" unicode="?" horiz-adv-x="400" 
d="M349 618q20 -69 -35 -148q-113 -174 -112 -305h-40q-1 143 119 327q44 66 29 116q-13 45 -54 70q-32 16 -57 16q-12 0 -30 -4q-46 -13 -71 -56q-8 -17 -10 -29l-39 8q4 19 14 39l1 2q33 57 94 74q20 6 41 6q37 0 76 -21q57 -34 74 -95zM180 64q14 0 23.5 -9.5t9.5 -22.5
q0 -14 -9.5 -23t-23.5 -9q-13 0 -22 9.5t-9 22.5t9 22.5t22 9.5z" />
    <glyph glyph-name="at" unicode="@" horiz-adv-x="1002" 
 />
    <glyph glyph-name="A" unicode="A" 
d="M174 231l-88 -231h-43l274 712h51l274 -712h-43l-89 231h-336zM342 667l-153 -398h306z" />
    <glyph glyph-name="B" unicode="B" horiz-adv-x="635" 
d="M536 390q67 -67 67 -161q0 -95 -67 -162t-162 -67h-307v712h257q61 0 104 -43t43 -103q0 -68 -53 -113q69 -14 118 -63zM324 674h-217v-216h231q40 5 67.5 35.5t27.5 72.5q0 44 -32 76t-77 32zM374 38q79 0 135 56t56 135t-56 134.5t-135 55.5v1h-34q-5 -1 -233 0v-382
h267z" />
    <glyph glyph-name="C" unicode="C" horiz-adv-x="742" 
d="M400 -11q-77 0 -145 28q-65 27 -119 80q-52 51 -80 119q-29 70 -29 145t29 145q28 66 80 119q54 53 119 80t145 27q88 0 156 -32q71 -33 123 -91l-30 -27q-47 53 -112.5 83t-136.5 30q-138 0 -235.5 -98t-97.5 -236t97.5 -236t235.5 -98q71 0 136.5 30t112.5 83l30 -27
q-54 -60 -123 -91q-70 -33 -156 -33z" />
    <glyph glyph-name="D" unicode="D" horiz-adv-x="695" 
d="M632 494q28 -63 28 -138q0 -74 -28 -139t-76 -113q-51 -49 -113 -76q-65 -28 -139 -28h-237v712h237q74 0 139 -28q62 -27 113 -76q49 -49 76 -114zM304 38q132 0 225 93.5t93 224.5t-93 224.5t-225 93.5h-197v-636h197z" />
    <glyph glyph-name="E" unicode="E" horiz-adv-x="579" 
d="M528 674h-388v-218h340v-38h-340v-380h388v-38h-428v712h428v-38z" />
    <glyph glyph-name="F" unicode="F" horiz-adv-x="520" 
d="M493 674h-388v-218h213v-38h-213v-418h-40v712h428v-38z" />
    <glyph glyph-name="G" unicode="G" horiz-adv-x="779" 
d="M410 458h297v-317q-1 -1 -6 -8.5l-8 -12t-8 -10.5t-9.5 -9.5t-8.5 -5.5q-49 -51 -116 -78q-68 -28 -145 -28t-145 28q-67 28 -119 80q-51 51 -80 119q-29 70 -29 145t29 145q28 66 80 119q52 52 119 80q65 27 145 27t145 -27q67 -29 118 -80l-28 -28q-100 98 -235 98
q-138 0 -235.5 -98t-97.5 -236t97.5 -236t235.5 -98q78 0 146 34t115 93v266h-257v38z" />
    <glyph glyph-name="H" unicode="H" horiz-adv-x="685" 
d="M575 712h40v-712h-40v420h-454v-420h-40v712h40v-254h454v254z" />
    <glyph glyph-name="I" unicode="I" horiz-adv-x="270" 
d="M155 712v-712h-40v712h40z" />
    <glyph glyph-name="J" unicode="J" horiz-adv-x="434" 
d="M80 712h273v-711h-40v673h-233v38zM91 -222q91 0 156.5 65.5t65.5 157.5h40q0 -110 -77 -185q-74 -76 -185 -76q-108 0 -183 73l28 29q66 -64 155 -64z" />
    <glyph glyph-name="K" unicode="K" horiz-adv-x="736" 
d="M589 712l-237 -224l348 -488h-47l-329 462l-199 -188v-274h-40v712h40v-385l409 385h55z" />
    <glyph glyph-name="L" unicode="L" horiz-adv-x="581" 
d="M116 38h421v-38h-461v712h40v-674z" />
    <glyph glyph-name="M" unicode="M" horiz-adv-x="810" 
d="M721 712v-712h-40v644l-276 -379l-275 379v-644h-40v712h40l275 -379l276 379h40z" />
    <glyph glyph-name="N" unicode="N" horiz-adv-x="727" 
d="M580 0l-434 641v-641h-40v712h40l435 -642v642h40v-712h-41z" />
    <glyph glyph-name="O" unicode="O" horiz-adv-x="813" 
d="M404 -11q-77 0 -145 28q-67 29 -118 80q-53 51 -80 119q-30 69 -30 145t30 145q27 65 79 119q53 52 119 80q65 27 145 27q81 0 146 -27q67 -29 118 -80q52 -53 80 -119q29 -67 29 -145t-29 -145q-29 -68 -80 -119t-118 -80q-68 -28 -146 -28zM404 695q-137 0 -235 -98
t-98 -236t98 -236t235 -98q138 0 235.5 98t97.5 236t-97.5 236t-235.5 98z" />
    <glyph glyph-name="P" unicode="P" horiz-adv-x="527" 
d="M339 712q60 0 103 -43t43 -103q0 -61 -43 -104t-103 -43v1h-218v-420h-40v712h258zM339 457q44 0 76 32t32 77q0 44 -32 76t-76 32h-218v-216h218v-1z" />
    <glyph glyph-name="Q" unicode="Q" horiz-adv-x="839" 
d="M683 112l111 -111h-57l-82 82q-49 -43 -104 -66q-70 -29 -146 -29q-75 0 -145 29q-67 29 -118 80q-53 51 -80 119q-30 69 -30 145t30 145q27 66 80 119q51 51 118 80q70 29 145 29q76 0 146 -29q67 -29 118 -80q52 -53 80 -119q29 -67 29 -145t-29 -145q-24 -59 -66 -104
zM654 140q84 94 84 221q0 138 -97.5 235.5t-235.5 97.5q-137 0 -235 -97.5t-98 -235.5t98 -235.5t235 -97.5q126 0 221 84l-215 214l28 29z" />
    <glyph glyph-name="R" unicode="R" horiz-adv-x="668" 
d="M277 420h-156v-420h-40v712h257q61 0 104 -43t43 -103q0 -61 -43 -104t-104 -43v1h-11l302 -420h-50zM121 674v-216h217v-1q45 0 77 32t32 77q0 44 -32 76t-77 32h-217z" />
    <glyph glyph-name="S" unicode="S" horiz-adv-x="601" 
d="M329 -13q-32 0 -69 8q-107 25 -201 107l26 30q63 -54 128.5 -81.5t114 -25t89.5 17.5q44 20 68 58t24 87q0 73 -71 113q-46 25 -120 38q-8 2 -18 4q-1 0 -22 5q-88 18 -130 42q-82 48 -82 141q0 53 30 96q28 41 79 66q68 32 158 16q98 -17 184 -88l-25 -31
q-75 62 -154.5 80.5t-145.5 -12.5q-41 -20 -64 -53.5t-22 -73.5q0 -36 15 -62t43.5 -41.5t55.5 -24t66 -16.5q3 -1 8 -2t8.5 -1.5t6.5 -1.5q4 -1 16 -3q85 -17 133 -43q42 -23 64 -56q27 -41 27 -92q0 -63 -31 -109q-29 -45 -84 -70q-50 -22 -105 -22z" />
    <glyph glyph-name="T" unicode="T" horiz-adv-x="520" 
d="M484 712v-38h-203v-674h-40v674h-203v38h446z" />
    <glyph glyph-name="U" unicode="U" horiz-adv-x="683" 
d="M574 712h40v-460q0 -112 -80 -192q-79 -79 -193 -79q-115 0 -192 79q-80 78 -80 192v460h40v-460q0 -96 68 -164.5t164 -68.5t164.5 68.5t68.5 164.5v460z" />
    <glyph glyph-name="V" unicode="V" 
d="M639 712l-270 -712h-57l-270 712h43l256 -674l256 674h42z" />
    <glyph glyph-name="W" unicode="W" horiz-adv-x="1049" 
d="M977 712h42l-199 -712h-56l-239 417l-239 -417h-56l-199 712h41l189 -675l241 421h46l241 -421z" />
    <glyph glyph-name="X" unicode="X" horiz-adv-x="685" 
d="M608 712l-240 -336l269 -376h-49l-245 342l-245 -342h-49l269 376l-240 336h49l216 -301l216 301h49z" />
    <glyph glyph-name="Y" unicode="Y" horiz-adv-x="625" 
d="M313 406l218 306h47l-246 -342v-370h-40v370l-244 342h47z" />
    <glyph glyph-name="Z" unicode="Z" horiz-adv-x="570" 
d="M99 38h430v-38h-478v38l430 636h-430v38h478v-38z" />
    <glyph glyph-name="bracketleft" unicode="[" horiz-adv-x="274" 
d="M172 0h-118v734h118v-34h-84v-667h84v-33z" />
    <glyph glyph-name="backslash" unicode="\" horiz-adv-x="386" 
d="M352 0h-43l-276 712h43z" />
    <glyph glyph-name="bracketright" unicode="]" horiz-adv-x="274" 
d="M102 734h118v-734h-118v33h84v667h-84v34z" />
    <glyph glyph-name="underscore" unicode="_" horiz-adv-x="479" 
d="M429 1h-379v30h379v-30z" />
    <glyph glyph-name="grave" unicode="`" horiz-adv-x="149" 
d="M102 531l-78 101h52l46 -101h-20z" />
    <glyph glyph-name="a" unicode="a" horiz-adv-x="590" 
 />
    <glyph glyph-name="b" unicode="b" horiz-adv-x="590" 
 />
    <glyph glyph-name="c" unicode="c" horiz-adv-x="511" 
 />
    <glyph glyph-name="d" unicode="d" horiz-adv-x="590" 
 />
    <glyph glyph-name="e" unicode="e" horiz-adv-x="527" 
 />
    <glyph glyph-name="f" unicode="f" horiz-adv-x="364" 
 />
    <glyph glyph-name="g" unicode="g" horiz-adv-x="590" 
 />
    <glyph glyph-name="h" unicode="h" horiz-adv-x="552" 
 />
    <glyph glyph-name="i" unicode="i" horiz-adv-x="234" 
d="M93 0v458h40v-458h-40zM114 621q13 0 22 -9.5t9 -22.5q0 -14 -9 -23.5t-22 -9.5q-14 0 -23.5 10t-9.5 23q0 14 9.5 23t23.5 9z" />
    <glyph glyph-name="j" unicode="j" horiz-adv-x="203" 
 />
    <glyph glyph-name="k" unicode="k" horiz-adv-x="494" 
d="M436 458l-183 -169l211 -288h-49l-191 261l-118 -109v-152h-40v732h40v-525l271 250h59z" />
    <glyph glyph-name="l" unicode="l" horiz-adv-x="206" 
 />
    <glyph glyph-name="m" unicode="m" horiz-adv-x="908" 
 />
    <glyph glyph-name="n" unicode="n" horiz-adv-x="545" 
 />
    <glyph glyph-name="o" unicode="o" horiz-adv-x="567" 
d="M283 -11q-102 0 -170 70q-70 70 -70 170t70 170q68 69 170 69t170 -69q71 -69 71 -170t-71 -170q-68 -70 -170 -70zM283 431q-82 0 -141 -59.5t-59 -142.5t59 -142.5t141 -59.5q83 0 142 59.5t59 142.5t-59 142.5t-142 59.5z" />
    <glyph glyph-name="p" unicode="p" horiz-adv-x="590" 
 />
    <glyph glyph-name="q" unicode="q" horiz-adv-x="590" 
 />
    <glyph glyph-name="r" unicode="r" horiz-adv-x="330" 
 />
    <glyph glyph-name="s" unicode="s" horiz-adv-x="444" 
 />
    <glyph glyph-name="t" unicode="t" horiz-adv-x="355" 
 />
    <glyph glyph-name="u" unicode="u" horiz-adv-x="544" 
 />
    <glyph glyph-name="v" unicode="v" horiz-adv-x="507" 
 />
    <glyph glyph-name="w" unicode="w" horiz-adv-x="704" 
 />
    <glyph glyph-name="x" unicode="x" horiz-adv-x="561" 
 />
    <glyph glyph-name="y" unicode="y" horiz-adv-x="506" 
 />
    <glyph glyph-name="z" unicode="z" horiz-adv-x="456" 
 />
    <glyph glyph-name="bar" unicode="|" horiz-adv-x="220" 
d="M122 -163h-24v1040h24v-1040z" />
    <glyph glyph-name="exclamdown" unicode="&#xa1;" horiz-adv-x="267" 
d="M112 -262v571h40v-571h-40zM133 472q13 0 22.5 -9.5t9.5 -22.5t-9.5 -23t-22.5 -10t-23 9.5t-10 23.5q0 13 9.5 22.5t23.5 9.5z" />
    <glyph glyph-name="sterling" unicode="&#xa3;" horiz-adv-x="428" 
d="M235 588v-130h168v-40h-168v-76h168v-40h-168v-157q0 -61 -44 -105h212v-40h-375l11 40h57q40 0 69.5 31t29.5 74v157h-91v40h91v76h-91v40h91v131q1 59 41.5 102t97.5 43h69l-11 -40h-58q-41 0 -70 -31.5t-29 -74.5z" />
    <glyph glyph-name="yen" unicode="&#xa5;" horiz-adv-x="626" 
d="M578 712l-245 -341h103v-36h-104v-76h104v-36h-104v-223h-40v223h-102v36h102v76h-102v36h101l-243 341h47l218 -306l218 306h47z" />
    <glyph glyph-name="dieresis" unicode="&#xa8;" horiz-adv-x="344" 
d="M98 560q-13 0 -22 9.5t-9 22.5q0 12 9 21.5t22 9.5t22.5 -9.5t9.5 -21.5q0 -13 -9.5 -22.5t-22.5 -9.5zM240 560q-13 0 -22 9.5t-9 22.5q0 12 9 21.5t22 9.5t22.5 -9.5t9.5 -21.5q0 -13 -9.5 -22.5t-22.5 -9.5z" />
    <glyph glyph-name="macron" unicode="&#xaf;" horiz-adv-x="424" 
d="M353 568h-284v32h284v-32z" />
    <glyph glyph-name="degree" unicode="&#xb0;" horiz-adv-x="335" 
d="M166 497q-43 0 -73 30t-30 72q0 43 30 73t73 30q42 0 72.5 -30t30.5 -73q0 -42 -30.5 -72t-72.5 -30zM166 666q-28 0 -47.5 -19.5t-19.5 -47.5q0 -27 19.5 -46.5t47.5 -19.5t47.5 19.5t19.5 46.5q0 28 -19.5 47.5t-47.5 19.5z" />
    <glyph glyph-name="acute" unicode="&#xb4;" horiz-adv-x="148" 
d="M124 632l-78 -101h-20l46 101h52z" />
    <glyph glyph-name="cedilla" unicode="&#xb8;" horiz-adv-x="167" 
d="M36 -89l78 101h20l-46 -101h-52z" />
    <glyph glyph-name="questiondown" unicode="&#xbf;" horiz-adv-x="386" 
d="M27 -160q-20 69 35 148q113 174 112 305h40q1 -143 -119 -327q-44 -66 -29 -116q13 -45 54 -70q32 -16 57 -16q12 0 30 4q46 13 71 56q8 17 10 29l39 -8q-4 -19 -14 -39l-1 -2q-33 -57 -94 -74q-19 -6 -41 -6q-37 0 -76 21q-57 34 -74 95zM196 394q-14 0 -23.5 9.5
t-9.5 22.5q0 14 9.5 23t23.5 9q13 0 22 -9.5t9 -22.5t-9 -22.5t-22 -9.5z" />
    <glyph glyph-name="Agrave" unicode="&#xc0;" 
d="M174 231l-88 -231h-43l274 712h51l274 -712h-43l-89 231h-336zM342 667l-153 -398h306zM325 785l-78 101h52l46 -101h-20z" />
    <glyph glyph-name="Aacute" unicode="&#xc1;" 
d="M174 231l-88 -231h-43l274 712h51l274 -712h-43l-89 231h-336zM342 667l-153 -398h306zM436 886l-78 -101h-20l46 101h52z" />
    <glyph glyph-name="Acircumflex" unicode="&#xc2;" 
d="M174 231l-88 -231h-43l274 712h51l274 -712h-43l-89 231h-336zM342 667l-153 -398h306zM275 799h-33l72 83h54l74 -83h-34l-67 59z" />
    <glyph glyph-name="Atilde" unicode="&#xc3;" 
d="M174 231l-88 -231h-43l274 712h51l274 -712h-43l-89 231h-336zM342 667l-153 -398h306zM376 806q-17 0 -41 16q-1 1 -4 3q-15 7 -20 8h-3q-15 0 -30 -20l-28 17q25 36 61 36q15 0 45 -20q7 -5 19 -7h4q16 0 30 20l28 -18q-25 -35 -61 -35z" />
    <glyph glyph-name="Adieresis" unicode="&#xc4;" 
d="M174 231l-88 -231h-43l274 712h51l274 -712h-43l-89 231h-336zM342 667l-153 -398h306zM267 814q-13 0 -22 9.5t-9 22.5q0 12 9 21.5t22 9.5t22.5 -9.5t9.5 -21.5q0 -13 -9.5 -22.5t-22.5 -9.5zM409 814q-13 0 -22 9.5t-9 22.5q0 12 9 21.5t22 9.5t22.5 -9.5t9.5 -21.5
q0 -13 -9.5 -22.5t-22.5 -9.5z" />
    <glyph glyph-name="Aring" unicode="&#xc5;" 
d="M174 231l-88 -231h-43l274 712h51l274 -712h-43l-89 231h-336zM342 667l-153 -398h306zM341 786q-26 0 -45 18t-19 43t19 43t45 18t44.5 -18t18.5 -43t-18.5 -43t-44.5 -18zM341 883q-15 0 -26 -11t-11 -25q0 -15 11 -25.5t26 -10.5t25.5 10.5t10.5 25.5t-10.5 25.5
t-25.5 10.5z" />
    <glyph glyph-name="Ccedilla" unicode="&#xc7;" horiz-adv-x="742" 
d="M401 27q71 0 136.5 30t112.5 83l30 -27q-54 -60 -123 -91q-65 -30 -143 -33l-41 -87h-56l67 87q-68 3 -128 28q-65 27 -119 80q-51 51 -80 119q-29 70 -29 145t29 145q28 66 80 119q54 53 119 80t145 27q88 0 156 -32q71 -33 123 -91l-30 -27q-47 53 -112.5 83t-136.5 30
q-138 0 -235.5 -98t-97.5 -236t97.5 -236t235.5 -98z" />
    <glyph glyph-name="Egrave" unicode="&#xc8;" horiz-adv-x="572" 
d="M521 674h-388v-218h340v-38h-340v-380h388v-38h-428v712h428v-38zM296 785l-78 101h52l46 -101h-20z" />
    <glyph glyph-name="Eacute" unicode="&#xc9;" horiz-adv-x="572" 
d="M521 674h-388v-218h340v-38h-340v-380h388v-38h-428v712h428v-38zM413 886l-78 -101h-20l46 101h52z" />
    <glyph glyph-name="Ecircumflex" unicode="&#xca;" horiz-adv-x="572" 
d="M521 674h-388v-218h340v-38h-340v-380h388v-38h-428v712h428v-38zM248 799h-33l72 83h54l74 -83h-34l-67 59z" />
    <glyph glyph-name="Edieresis" unicode="&#xcb;" horiz-adv-x="572" 
d="M521 674h-388v-218h340v-38h-340v-380h388v-38h-428v712h428v-38zM242 814q-13 0 -22 9.5t-9 22.5q0 12 9 21.5t22 9.5t22.5 -9.5t9.5 -21.5q0 -13 -9.5 -22.5t-22.5 -9.5zM384 814q-13 0 -22 9.5t-9 22.5q0 12 9 21.5t22 9.5t22.5 -9.5t9.5 -21.5q0 -13 -9.5 -22.5
t-22.5 -9.5z" />
    <glyph glyph-name="Igrave" unicode="&#xcc;" horiz-adv-x="261" 
d="M149 712v-712h-40v712h40zM116 785l-78 101h52l46 -101h-20z" />
    <glyph glyph-name="Iacute" unicode="&#xcd;" horiz-adv-x="260" 
d="M146 712v-712h-40v712h40zM218 886l-78 -101h-20l46 101h52z" />
    <glyph glyph-name="Icircumflex" unicode="&#xce;" horiz-adv-x="310" 
d="M173 712v-712h-40v712h40zM88 799h-33l72 83h54l74 -83h-34l-67 59z" />
    <glyph glyph-name="Idieresis" unicode="&#xcf;" horiz-adv-x="336" 
d="M186 712v-712h-40v712h40zM94 814q-13 0 -22 9.5t-9 22.5q0 12 9 21.5t22 9.5t22.5 -9.5t9.5 -21.5q0 -13 -9.5 -22.5t-22.5 -9.5zM236 814q-13 0 -22 9.5t-9 22.5q0 12 9 21.5t22 9.5t22.5 -9.5t9.5 -21.5q0 -13 -9.5 -22.5t-22.5 -9.5z" />
    <glyph glyph-name="Ntilde" unicode="&#xd1;" horiz-adv-x="748" 
d="M591 0l-434 641v-641h-40v712h40l435 -642v642h40v-712h-41zM417 806q-17 0 -41 16l-2 1q-2 1 -2 2q-15 7 -20 8h-3q-15 0 -30 -20l-28 17q25 36 61 36q15 0 45 -20q7 -5 19 -7h4q16 0 30 20l28 -18q-25 -35 -61 -35z" />
    <glyph glyph-name="Ograve" unicode="&#xd2;" horiz-adv-x="813" 
d="M404 -11q-77 0 -145 28q-67 29 -118 80q-53 51 -80 119q-30 69 -30 145t30 145q27 65 79 119q53 52 119 80q65 27 145 27q81 0 146 -27q67 -29 118 -80q52 -53 80 -119q29 -67 29 -145t-29 -145q-29 -68 -80 -119t-118 -80q-68 -28 -146 -28zM404 695q-137 0 -235 -98
t-98 -236t98 -236t235 -98q138 0 235.5 98t97.5 236t-97.5 236t-235.5 98zM390 785l-78 101h52l46 -101h-20z" />
    <glyph glyph-name="Oacute" unicode="&#xd3;" horiz-adv-x="813" 
d="M404 -11q-77 0 -145 28q-67 29 -118 80q-53 51 -80 119q-30 69 -30 145t30 145q27 65 79 119q53 52 119 80q65 27 145 27q81 0 146 -27q67 -29 118 -80q52 -53 80 -119q29 -67 29 -145t-29 -145q-29 -68 -80 -119t-118 -80q-68 -28 -146 -28zM404 695q-137 0 -235 -98
t-98 -236t98 -236t235 -98q138 0 235.5 98t97.5 236t-97.5 236t-235.5 98zM498 886l-78 -101h-20l46 101h52z" />
    <glyph glyph-name="Ocircumflex" unicode="&#xd4;" horiz-adv-x="813" 
d="M404 -11q-77 0 -145 28q-67 29 -118 80q-53 51 -80 119q-30 69 -30 145t30 145q27 65 79 119q53 52 119 80q65 27 145 27q81 0 146 -27q67 -29 118 -80q52 -53 80 -119q29 -67 29 -145t-29 -145q-29 -68 -80 -119t-118 -80q-68 -28 -146 -28zM404 695q-137 0 -235 -98
t-98 -236t98 -236t235 -98q138 0 235.5 98t97.5 236t-97.5 236t-235.5 98zM340 799h-33l72 83h54l74 -83h-34l-67 59z" />
    <glyph glyph-name="Otilde" unicode="&#xd5;" horiz-adv-x="813" 
d="M404 -11q-77 0 -145 28q-67 29 -118 80q-53 51 -80 119q-30 69 -30 145t30 145q27 65 79 119q53 52 119 80q65 27 145 27q81 0 146 -27q67 -29 118 -80q52 -53 80 -119q29 -67 29 -145t-29 -145q-29 -68 -80 -119t-118 -80q-68 -28 -146 -28zM404 695q-137 0 -235 -98
t-98 -236t98 -236t235 -98q138 0 235.5 98t97.5 236t-97.5 236t-235.5 98zM436 806q-17 0 -41 16q-1 1 -4 3q-15 7 -20 8h-3q-15 0 -30 -20l-28 17q25 36 61 36q15 0 45 -20q7 -5 19 -7h4q16 0 30 20l28 -18q-25 -35 -61 -35z" />
    <glyph glyph-name="Odieresis" unicode="&#xd6;" horiz-adv-x="813" 
d="M404 -11q-77 0 -145 28q-67 29 -118 80q-53 51 -80 119q-30 69 -30 145t30 145q27 65 79 119q53 52 119 80q65 27 145 27q81 0 146 -27q67 -29 118 -80q52 -53 80 -119q29 -67 29 -145t-29 -145q-29 -68 -80 -119t-118 -80q-68 -28 -146 -28zM404 695q-137 0 -235 -98
t-98 -236t98 -236t235 -98q138 0 235.5 98t97.5 236t-97.5 236t-235.5 98zM329 814q-13 0 -22 9.5t-9 22.5q0 12 9 21.5t22 9.5t22.5 -9.5t9.5 -21.5q0 -13 -9.5 -22.5t-22.5 -9.5zM471 814q-13 0 -22 9.5t-9 22.5q0 12 9 21.5t22 9.5t22.5 -9.5t9.5 -21.5q0 -13 -9.5 -22.5
t-22.5 -9.5z" />
    <glyph glyph-name="multiply" unicode="&#xd7;" horiz-adv-x="340" 
d="M272 99l-102 102l-103 -102l-29 29l102 102l-102 103l29 29l103 -102l102 102l30 -29l-103 -103l103 -102z" />
    <glyph glyph-name="Oslash" unicode="&#xd8;" horiz-adv-x="813" 
d="M673 613q43 -46 69 -107q29 -67 29 -145t-29 -145q-28 -68 -80 -119q-51 -51 -118 -80q-68 -28 -146 -28q-77 0 -145 28q-61 26 -107 69l-85 -85l-28 28l85 86q-40 45 -63 101q-30 69 -30 145t30 145q27 65 79 119q53 52 119 80q65 27 145 27q81 0 146 -27
q58 -25 101 -64l72 74l28 -28zM65 361q0 -122 81 -218l470 470q-93 82 -218 82q-137 0 -235 -98t-98 -236zM398 27q138 0 235.5 98t97.5 236q0 130 -86 224l-471 -471q95 -87 224 -87z" />
    <glyph glyph-name="Ugrave" unicode="&#xd9;" horiz-adv-x="678" 
d="M574 712h40v-460q0 -112 -80 -192q-79 -79 -193 -79q-115 0 -192 79q-80 78 -80 192v460h40v-460q0 -96 68 -164.5t164 -68.5t164.5 68.5t68.5 164.5v460zM333 785l-78 101h52l46 -101h-20z" />
    <glyph glyph-name="Uacute" unicode="&#xda;" horiz-adv-x="678" 
d="M574 712h40v-460q0 -112 -80 -192q-79 -79 -193 -79q-115 0 -192 79q-80 78 -80 192v460h40v-460q0 -96 68 -164.5t164 -68.5t164.5 68.5t68.5 164.5v460zM439 886l-78 -101h-20l46 101h52z" />
    <glyph glyph-name="Ucircumflex" unicode="&#xdb;" horiz-adv-x="678" 
d="M574 712h40v-460q0 -112 -80 -192q-79 -79 -193 -79q-115 0 -192 79q-80 78 -80 192v460h40v-460q0 -96 68 -164.5t164 -68.5t164.5 68.5t68.5 164.5v460zM275 799h-33l72 83h54l74 -83h-34l-67 59z" />
    <glyph glyph-name="Udieresis" unicode="&#xdc;" horiz-adv-x="678" 
d="M574 712h40v-460q0 -112 -80 -192q-79 -79 -193 -79q-115 0 -192 79q-80 78 -80 192v460h40v-460q0 -96 68 -164.5t164 -68.5t164.5 68.5t68.5 164.5v460zM269 814q-13 0 -22 9.5t-9 22.5q0 12 9 21.5t22 9.5t22.5 -9.5t9.5 -21.5q0 -13 -9.5 -22.5t-22.5 -9.5zM411 814
q-13 0 -22 9.5t-9 22.5q0 12 9 21.5t22 9.5t22.5 -9.5t9.5 -21.5q0 -13 -9.5 -22.5t-22.5 -9.5z" />
    <glyph glyph-name="Yacute" unicode="&#xdd;" horiz-adv-x="625" 
d="M313 406l218 306h47l-246 -342v-370h-40v370l-244 342h47zM415 886l-78 -101h-20l46 101h52z" />
    <glyph glyph-name="germandbls" unicode="&#xdf;" horiz-adv-x="513" 
d="M398 362q63 -61 63 -151t-63 -151q-65 -63 -153 -63v40q73 0 124.5 51t51.5 123t-51.5 122.5t-124.5 50.5v40q52 0 89 36.5t37 87.5q0 52 -37 88t-89 36q-53 0 -90 -36t-37 -88v-548h-40v554q2 66 50.5 112t116.5 46t117 -48t49 -116q0 -44 -22 -81.5t-59 -59.5
q38 -15 68 -45z" />
    <glyph glyph-name="agrave" unicode="&#xe0;" horiz-adv-x="558" 
d="M261 536l-78 101h52l46 -101h-20z" />
    <glyph glyph-name="aacute" unicode="&#xe1;" horiz-adv-x="558" 
d="M365 632l-78 -101h-20l46 101h52z" />
    <glyph glyph-name="acircumflex" unicode="&#xe2;" horiz-adv-x="558" 
d="M209 545h-33l72 83h54l74 -83h-34l-67 59z" />
    <glyph glyph-name="atilde" unicode="&#xe3;" horiz-adv-x="558" 
d="M309 552q-17 0 -41 16l-2 1q-2 1 -2 2q-15 7 -20 8h-3q-15 0 -30 -20l-28 17q25 36 61 36q15 0 45 -20q7 -5 19 -7h4q16 0 30 20l28 -18q-25 -35 -61 -35z" />
    <glyph glyph-name="adieresis" unicode="&#xe4;" horiz-adv-x="558" 
d="M199 560q-13 0 -22 9.5t-9 22.5q0 12 9 21.5t22 9.5t22.5 -9.5t9.5 -21.5q0 -13 -9.5 -22.5t-22.5 -9.5zM341 560q-13 0 -22 9.5t-9 22.5q0 12 9 21.5t22 9.5t22.5 -9.5t9.5 -21.5q0 -13 -9.5 -22.5t-22.5 -9.5z" />
    <glyph glyph-name="aring" unicode="&#xe5;" horiz-adv-x="558" 
d="M274 532q-26 0 -45 18t-19 43t19 43t45 18t44.5 -18t18.5 -43t-18.5 -43t-44.5 -18zM274 629q-15 0 -26 -11t-11 -25q0 -15 11 -25.5t26 -10.5t25.5 10.5t10.5 25.5t-10.5 25.5t-25.5 10.5z" />
    <glyph glyph-name="ccedilla" unicode="&#xe7;" horiz-adv-x="498" 
d="M422 95l28 -28q-33 -34 -77 -54q-44 -19 -95 -19l-44 -92h-56l73 94q-84 8 -144 68q-71 69 -71 170t71 170q69 69 170 69q53 0 95 -18q44 -19 77 -53l-28 -28q-59 61 -144 61q-83 0 -142 -59t-59 -142t59 -142.5t142 -59.5q84 0 145 63z" />
    <glyph glyph-name="egrave" unicode="&#xe8;" horiz-adv-x="499" 
d="M237 531l-78 101h52l46 -101h-20z" />
    <glyph glyph-name="eacute" unicode="&#xe9;" horiz-adv-x="499" 
d="M349 632l-78 -101h-20l46 101h52z" />
    <glyph glyph-name="ecircumflex" unicode="&#xea;" horiz-adv-x="499" 
d="M184 545h-33l72 83h54l74 -83h-34l-67 59z" />
    <glyph glyph-name="edieresis" unicode="&#xeb;" horiz-adv-x="499" 
d="M176 560q-13 0 -22 9.5t-9 22.5q0 12 9 21.5t22 9.5t22.5 -9.5t9.5 -21.5q0 -13 -9.5 -22.5t-22.5 -9.5zM318 560q-13 0 -22 9.5t-9 22.5q0 12 9 21.5t22 9.5t22.5 -9.5t9.5 -21.5q0 -13 -9.5 -22.5t-22.5 -9.5z" />
    <glyph glyph-name="igrave" unicode="&#xec;" horiz-adv-x="245" 
d="M101 0v458h40v-458h-40zM107 531l-78 101h52l46 -101h-20z" />
    <glyph glyph-name="iacute" unicode="&#xed;" horiz-adv-x="247" 
d="M102 0v458h40v-458h-40zM216 632l-78 -101h-20l46 101h52z" />
    <glyph glyph-name="icircumflex" unicode="&#xee;" horiz-adv-x="310" 
d="M132 0v458h40v-458h-40zM88 545h-33l72 83h54l74 -83h-34l-67 59z" />
    <glyph glyph-name="idieresis" unicode="&#xef;" horiz-adv-x="316" 
d="M139 0v458h40v-458h-40zM84 560q-13 0 -22 9.5t-9 22.5q0 12 9 21.5t22 9.5t22.5 -9.5t9.5 -21.5q0 -13 -9.5 -22.5t-22.5 -9.5zM226 560q-13 0 -22 9.5t-9 22.5q0 12 9 21.5t22 9.5t22.5 -9.5t9.5 -21.5q0 -13 -9.5 -22.5t-22.5 -9.5z" />
    <glyph glyph-name="ntilde" unicode="&#xf1;" horiz-adv-x="540" 
d="M309 552q-17 0 -41 16l-2 1q-2 1 -2 2q-15 7 -20 8h-3q-15 0 -30 -20l-28 17q25 36 61 36q15 0 45 -20q7 -5 19 -7h4q16 0 30 20l28 -18q-25 -35 -61 -35z" />
    <glyph glyph-name="ograve" unicode="&#xf2;" horiz-adv-x="548" 
d="M271 -11q-102 0 -170 70q-70 70 -70 170t70 170q67 69 170 69t170 -69q71 -69 71 -170t-71 -170q-68 -70 -170 -70zM271 431q-82 0 -141 -59.5t-59 -142.5t59 -142.5t141 -59.5q83 0 142 59.5t59 142.5t-59 142.5t-142 59.5zM260 531l-78 101h52l46 -101h-20z" />
    <glyph glyph-name="oacute" unicode="&#xf3;" horiz-adv-x="548" 
d="M271 -11q-102 0 -170 70q-70 70 -70 170t70 170q67 69 170 69t170 -69q71 -69 71 -170t-71 -170q-68 -70 -170 -70zM271 431q-82 0 -141 -59.5t-59 -142.5t59 -142.5t141 -59.5q83 0 142 59.5t59 142.5t-59 142.5t-142 59.5zM370 632l-78 -101h-20l46 101h52z" />
    <glyph glyph-name="ocircumflex" unicode="&#xf4;" horiz-adv-x="548" 
d="M271 -11q-102 0 -170 70q-70 70 -70 170t70 170q67 69 170 69t170 -69q71 -69 71 -170t-71 -170q-68 -70 -170 -70zM271 431q-82 0 -141 -59.5t-59 -142.5t59 -142.5t141 -59.5q83 0 142 59.5t59 142.5t-59 142.5t-142 59.5zM207 545h-33l72 83h54l74 -83h-34l-67 59z
" />
    <glyph glyph-name="otilde" unicode="&#xf5;" horiz-adv-x="548" 
d="M271 -11q-102 0 -170 70q-70 70 -70 170t70 170q67 69 170 69t170 -69q71 -69 71 -170t-71 -170q-68 -70 -170 -70zM271 431q-82 0 -141 -59.5t-59 -142.5t59 -142.5t141 -59.5q83 0 142 59.5t59 142.5t-59 142.5t-142 59.5zM308 552q-17 0 -41 16q-1 0 -2 1l-2 2
q-15 7 -20 8h-3q-15 0 -30 -20l-28 17q25 36 61 36q15 0 45 -20q7 -5 19 -7h4q16 0 30 20l28 -18q-25 -35 -61 -35z" />
    <glyph glyph-name="odieresis" unicode="&#xf6;" horiz-adv-x="548" 
d="M271 -11q-102 0 -170 70q-70 70 -70 170t70 170q67 69 170 69t170 -69q71 -69 71 -170t-71 -170q-68 -70 -170 -70zM271 431q-82 0 -141 -59.5t-59 -142.5t59 -142.5t141 -59.5q83 0 142 59.5t59 142.5t-59 142.5t-142 59.5zM200 560q-13 0 -22 9.5t-9 22.5q0 12 9 21.5
t22 9.5t22.5 -9.5t9.5 -21.5q0 -13 -9.5 -22.5t-22.5 -9.5zM342 560q-13 0 -22 9.5t-9 22.5q0 12 9 21.5t22 9.5t22.5 -9.5t9.5 -21.5q0 -13 -9.5 -22.5t-22.5 -9.5z" />
    <glyph glyph-name="divide" unicode="&#xf7;" horiz-adv-x="329" 
d="M13 213h301v32h-301v-32zM164 71q-14 0 -24 10t-10 24t10 24.5t24 10.5t24.5 -10t10.5 -25q0 -14 -10 -24t-25 -10zM164 318q-14 0 -24 10t-10 24t10 24.5t24 10.5t24.5 -10t10.5 -25q0 -14 -10 -24t-25 -10z" />
    <glyph glyph-name="oslash" unicode="&#xf8;" horiz-adv-x="548" 
d="M450 386q59 -68 59 -157q0 -101 -71 -170q-68 -70 -170 -70q-91 0 -157 58l-48 -47l-28 28l48 48q-55 66 -55 153q0 100 70 170q68 69 170 69q90 0 154 -54l43 43l28 -28zM68 229q0 -71 43 -125l283 282q-56 45 -126 45q-82 0 -141 -59.5t-59 -142.5zM268 27
q83 0 142 59.5t59 142.5q0 72 -47 129l-283 -283q56 -48 129 -48z" />
    <glyph glyph-name="ugrave" unicode="&#xf9;" horiz-adv-x="522" 
d="M246 531l-78 101h52l46 -101h-20z" />
    <glyph glyph-name="uacute" unicode="&#xfa;" horiz-adv-x="522" 
d="M353 632l-78 -101h-20l46 101h52z" />
    <glyph glyph-name="ucircumflex" unicode="&#xfb;" horiz-adv-x="522" 
d="M190 545h-33l72 83h54l74 -83h-34l-67 59z" />
    <glyph glyph-name="udieresis" unicode="&#xfc;" horiz-adv-x="522" 
d="M185 560q-13 0 -22 9.5t-9 22.5q0 12 9 21.5t22 9.5t22.5 -9.5t9.5 -21.5q0 -13 -9.5 -22.5t-22.5 -9.5zM327 560q-13 0 -22 9.5t-9 22.5q0 12 9 21.5t22 9.5t22.5 -9.5t9.5 -21.5q0 -13 -9.5 -22.5t-22.5 -9.5z" />
    <glyph glyph-name="yacute" unicode="&#xfd;" horiz-adv-x="504" 
d="M351 632l-78 -101h-20l46 101h52z" />
    <glyph glyph-name="ydieresis" unicode="&#xff;" horiz-adv-x="504" 
d="M179 560q-13 0 -22 9.5t-9 22.5q0 12 9 21.5t22 9.5t22.5 -9.5t9.5 -21.5q0 -13 -9.5 -22.5t-22.5 -9.5zM321 560q-13 0 -22 9.5t-9 22.5q0 12 9 21.5t22 9.5t22.5 -9.5t9.5 -21.5q0 -13 -9.5 -22.5t-22.5 -9.5z" />
    <glyph glyph-name="Amacron" unicode="&#x100;" 
d="M174 231l-88 -231h-43l274 712h51l274 -712h-43l-89 231h-336zM342 667l-153 -398h306zM483 822h-284v32h284v-32z" />
    <glyph glyph-name="amacron" unicode="&#x101;" horiz-adv-x="558" 
d="M415 568h-284v32h284v-32z" />
    <glyph glyph-name="Abreve" unicode="&#x102;" 
d="M174 231l-88 -231h-43l274 712h51l274 -712h-43l-89 231h-336zM342 667l-153 -398h306zM343 803q-30 0 -55 19q-23 18 -25 47h34q2 -13 15.5 -24t30.5 -11t30.5 11t15.5 24h33q-2 -31 -24 -47q-28 -19 -55 -19z" />
    <glyph glyph-name="abreve" unicode="&#x103;" horiz-adv-x="558" 
d="M277 549q-30 0 -55 19q-23 18 -25 47h34q2 -13 15.5 -24t30.5 -11t30.5 11t15.5 24h33q-2 -31 -24 -47q-28 -19 -55 -19z" />
    <glyph glyph-name="Cacute" unicode="&#x106;" horiz-adv-x="742" 
d="M400 -11q-77 0 -145 28q-65 27 -119 80q-52 51 -80 119q-29 70 -29 145t29 145q28 66 80 119q54 53 119 80t145 27q88 0 156 -32q71 -33 123 -91l-30 -27q-47 53 -112.5 83t-136.5 30q-138 0 -235.5 -98t-97.5 -236t97.5 -236t235.5 -98q71 0 136.5 30t112.5 83l30 -27
q-54 -60 -123 -91q-70 -33 -156 -33zM498 886l-78 -101h-20l46 101h52z" />
    <glyph glyph-name="cacute" unicode="&#x107;" horiz-adv-x="498" 
d="M368 632l-78 -101h-20l46 101h52z" />
    <glyph glyph-name="Ccircumflex" unicode="&#x108;" horiz-adv-x="742" 
d="M400 -11q-77 0 -145 28q-65 27 -119 80q-52 51 -80 119q-29 70 -29 145t29 145q28 66 80 119q54 53 119 80t145 27q88 0 156 -32q71 -33 123 -91l-30 -27q-47 53 -112.5 83t-136.5 30q-138 0 -235.5 -98t-97.5 -236t97.5 -236t235.5 -98q71 0 136.5 30t112.5 83l30 -27
q-54 -60 -123 -91q-70 -33 -156 -33zM330 799h-33l72 83h54l74 -83h-34l-67 59z" />
    <glyph glyph-name="ccircumflex" unicode="&#x109;" horiz-adv-x="498" 
d="M207 545h-33l72 83h54l74 -83h-34l-67 59z" />
    <glyph glyph-name="Ccaron" unicode="&#x10c;" horiz-adv-x="742" 
d="M400 -11q-77 0 -145 28q-65 27 -119 80q-52 51 -80 119q-29 70 -29 145t29 145q28 66 80 119q54 53 119 80t145 27q88 0 156 -32q71 -33 123 -91l-30 -27q-47 53 -112.5 83t-136.5 30q-138 0 -235.5 -98t-97.5 -236t97.5 -236t235.5 -98q71 0 136.5 30t112.5 83l30 -27
q-54 -60 -123 -91q-70 -33 -156 -33zM473 887h33l-72 -83h-54l-74 83h34l67 -59z" />
    <glyph glyph-name="ccaron" unicode="&#x10d;" horiz-adv-x="498" 
d="M336 633h33l-72 -83h-54l-74 83h34l67 -59z" />
    <glyph glyph-name="Dcaron" unicode="&#x10e;" horiz-adv-x="695" 
d="M632 494q28 -63 28 -138q0 -74 -28 -139t-76 -113q-51 -49 -113 -76q-65 -28 -139 -28h-237v712h237q74 0 139 -28q62 -27 113 -76q49 -49 76 -114zM304 38q132 0 225 93.5t93 224.5t-93 224.5t-225 93.5h-197v-636h197zM346 887h33l-72 -83h-54l-74 83h34l67 -59z" />
    <glyph glyph-name="dcaron" unicode="&#x10f;" horiz-adv-x="704" 
d="M592 628h-36l51 107h68z" />
    <glyph glyph-name="Emacron" unicode="&#x112;" horiz-adv-x="572" 
d="M521 674h-388v-218h340v-38h-340v-380h388v-38h-428v712h428v-38zM448 822h-284v32h284v-32z" />
    <glyph glyph-name="emacron" unicode="&#x113;" horiz-adv-x="499" 
d="M392 568h-284v32h284v-32z" />
    <glyph glyph-name="Ebreve" unicode="&#x114;" horiz-adv-x="572" 
d="M521 674h-388v-218h340v-38h-340v-380h388v-38h-428v712h428v-38zM317 803q-30 0 -55 19q-23 18 -25 47h34q2 -13 15.5 -24t30.5 -11t30.5 11t15.5 24h33q-2 -31 -24 -47q-28 -19 -55 -19z" />
    <glyph glyph-name="ebreve" unicode="&#x115;" horiz-adv-x="499" 
d="M251 549q-30 0 -55 19q-23 18 -25 47h34q2 -13 15.5 -24t30.5 -11t30.5 11t15.5 24h33q-2 -31 -24 -47q-28 -19 -55 -19z" />
    <glyph glyph-name="Ecaron" unicode="&#x11a;" horiz-adv-x="572" 
d="M521 674h-388v-218h340v-38h-340v-380h388v-38h-428v712h428v-38zM383 887h33l-72 -83h-54l-74 83h34l67 -59z" />
    <glyph glyph-name="ecaron" unicode="&#x11b;" horiz-adv-x="499" 
d="M314 633h33l-72 -83h-54l-74 83h34l67 -59z" />
    <glyph glyph-name="Gcircumflex" unicode="&#x11c;" horiz-adv-x="769" 
d="M412 458h297v-317q-1 -1 -6 -8.5l-8 -12t-8 -10.5t-9.5 -9.5t-8.5 -5.5q-49 -51 -116 -78q-68 -28 -145 -28t-145 28q-67 28 -119 80q-52 51 -80 119q-29 70 -29 145t29 145q28 66 80 119q52 52 119 80q65 27 145 27t145 -27q67 -29 118 -80l-28 -28q-100 98 -235 98
q-138 0 -235.5 -98t-97.5 -236t97.5 -236t235.5 -98q78 0 146 34t115 93v266h-257v38zM342 799h-33l72 83h54l74 -83h-34l-67 59z" />
    <glyph glyph-name="gcircumflex" unicode="&#x11d;" horiz-adv-x="548" 
d="M205 545h-33l72 83h54l74 -83h-34l-67 59z" />
    <glyph glyph-name="Gbreve" unicode="&#x11e;" horiz-adv-x="767" 
d="M410 458h297v-317q-1 -1 -6 -8.5l-8 -12t-8 -10.5t-9.5 -9.5t-8.5 -5.5q-49 -51 -116 -78q-68 -28 -145 -28t-145 28q-67 28 -119 80q-51 51 -80 119q-29 70 -29 145t29 145q28 66 80 119q52 52 119 80q65 27 145 27t145 -27q67 -29 118 -80l-28 -28q-100 98 -235 98
q-138 0 -235.5 -98t-97.5 -236t97.5 -236t235.5 -98q78 0 146 34t115 93v266h-257v38zM410 803q-30 0 -55 19q-23 18 -25 47h34q2 -13 15.5 -24t30.5 -11t30.5 11t15.5 24h33q-2 -31 -24 -47q-28 -19 -55 -19z" />
    <glyph glyph-name="gbreve" unicode="&#x11f;" horiz-adv-x="558" 
d="M279 549q-30 0 -55 19q-23 18 -25 47h34q2 -13 15.5 -24t30.5 -11t30.5 11t15.5 24h33q-2 -31 -24 -47q-28 -19 -55 -19z" />
    <glyph glyph-name="imacron" unicode="&#x12b;" horiz-adv-x="216" 
d="M87 0v458h40v-458h-40zM250 568h-284v32h284v-32z" />
    <glyph glyph-name="Ibreve" unicode="&#x12c;" horiz-adv-x="247" 
d="M144 712v-712h-40v712h40zM124 803q-30 0 -55 19q-23 18 -25 47h34q2 -13 15.5 -24t30.5 -11t30.5 11t15.5 24h33q-2 -31 -24 -47q-28 -19 -55 -19z" />
    <glyph glyph-name="dotlessi" unicode="&#x131;" horiz-adv-x="216" 
d="M87 0v458h40v-458h-40z" />
    <glyph glyph-name="Nacute" unicode="&#x143;" horiz-adv-x="748" 
d="M591 0l-434 641v-641h-40v712h40l435 -642v642h40v-712h-41zM499 886l-78 -101h-20l46 101h52z" />
    <glyph glyph-name="nacute" unicode="&#x144;" horiz-adv-x="540" 
d="M370 632l-78 -101h-20l46 101h52z" />
    <glyph glyph-name="Ncaron" unicode="&#x147;" horiz-adv-x="748" 
d="M591 0l-434 641v-641h-40v712h40l435 -642v642h40v-712h-41zM447 887h33l-72 -83h-54l-74 83h34l67 -59z" />
    <glyph glyph-name="ncaron" unicode="&#x148;" horiz-adv-x="540" 
d="M339 633h33l-72 -83h-54l-74 83h34l67 -59z" />
    <glyph glyph-name="Omacron" unicode="&#x14c;" horiz-adv-x="813" 
d="M404 -11q-77 0 -145 28q-67 29 -118 80q-53 51 -80 119q-30 69 -30 145t30 145q27 65 79 119q53 52 119 80q65 27 145 27q81 0 146 -27q67 -29 118 -80q52 -53 80 -119q29 -67 29 -145t-29 -145q-29 -68 -80 -119t-118 -80q-68 -28 -146 -28zM404 695q-137 0 -235 -98
t-98 -236t98 -236t235 -98q138 0 235.5 98t97.5 236t-97.5 236t-235.5 98zM548 822h-284v32h284v-32z" />
    <glyph glyph-name="omacron" unicode="&#x14d;" horiz-adv-x="548" 
d="M271 -11q-102 0 -170 70q-70 70 -70 170t70 170q67 69 170 69t170 -69q71 -69 71 -170t-71 -170q-68 -70 -170 -70zM271 431q-82 0 -141 -59.5t-59 -142.5t59 -142.5t141 -59.5q83 0 142 59.5t59 142.5t-59 142.5t-142 59.5zM413 568h-284v32h284v-32z" />
    <glyph glyph-name="Obreve" unicode="&#x14e;" horiz-adv-x="813" 
d="M404 -11q-77 0 -145 28q-67 29 -118 80q-53 51 -80 119q-30 69 -30 145t30 145q27 65 79 119q53 52 119 80q65 27 145 27q81 0 146 -27q67 -29 118 -80q52 -53 80 -119q29 -67 29 -145t-29 -145q-29 -68 -80 -119t-118 -80q-68 -28 -146 -28zM404 695q-137 0 -235 -98
t-98 -236t98 -236t235 -98q138 0 235.5 98t97.5 236t-97.5 236t-235.5 98zM410 803q-30 0 -55 19q-23 18 -25 47h34q2 -13 15.5 -24t30.5 -11t30.5 11t15.5 24h33q-2 -31 -24 -47q-28 -19 -55 -19z" />
    <glyph glyph-name="obreve" unicode="&#x14f;" horiz-adv-x="548" 
d="M271 -11q-102 0 -170 70q-70 70 -70 170t70 170q67 69 170 69t170 -69q71 -69 71 -170t-71 -170q-68 -70 -170 -70zM271 431q-82 0 -141 -59.5t-59 -142.5t59 -142.5t141 -59.5q83 0 142 59.5t59 142.5t-59 142.5t-142 59.5zM275 549q-30 0 -55 19q-23 18 -25 47h34
q2 -13 15.5 -24t30.5 -11t30.5 11t15.5 24h33q-2 -31 -24 -47q-28 -19 -55 -19z" />
    <glyph glyph-name="Ohungarumlaut" unicode="&#x150;" horiz-adv-x="813" 
d="M404 -11q-77 0 -145 28q-67 29 -118 80q-53 51 -80 119q-30 69 -30 145t30 145q27 65 79 119q53 52 119 80q65 27 145 27q81 0 146 -27q67 -29 118 -80q52 -53 80 -119q29 -67 29 -145t-29 -145q-29 -68 -80 -119t-118 -80q-68 -28 -146 -28zM404 695q-137 0 -235 -98
t-98 -236t98 -236t235 -98q138 0 235.5 98t97.5 236t-97.5 236t-235.5 98zM470 886l-78 -101h-20l46 101h52zM544 886l-78 -101h-20l46 101h52z" />
    <glyph glyph-name="ohungarumlaut" unicode="&#x151;" horiz-adv-x="548" 
d="M271 -11q-102 0 -170 70q-70 70 -70 170t70 170q67 69 170 69t170 -69q71 -69 71 -170t-71 -170q-68 -70 -170 -70zM271 431q-82 0 -141 -59.5t-59 -142.5t59 -142.5t141 -59.5q83 0 142 59.5t59 142.5t-59 142.5t-142 59.5zM341 632l-78 -101h-20l46 101h52zM415 632
l-78 -101h-20l46 101h52z" />
    <glyph glyph-name="Racute" unicode="&#x154;" horiz-adv-x="638" 
d="M259 420h-156v-420h-40v712h257q61 0 104 -43t43 -103q0 -61 -43 -104t-104 -43v1h-11l302 -420h-50zM103 674v-216h217v-1q45 0 77 32t32 77q0 44 -32 76t-77 32h-217zM349 886l-78 -101h-20l46 101h52z" />
    <glyph glyph-name="racute" unicode="&#x155;" horiz-adv-x="327" 
d="M268 632l-78 -101h-20l46 101h52z" />
    <glyph glyph-name="Rcaron" unicode="&#x158;" horiz-adv-x="638" 
d="M259 420h-156v-420h-40v712h257q61 0 104 -43t43 -103q0 -61 -43 -104t-104 -43v1h-11l302 -420h-50zM103 674v-216h217v-1q45 0 77 32t32 77q0 44 -32 76t-77 32h-217zM293 887h33l-72 -83h-54l-74 83h34l67 -59z" />
    <glyph glyph-name="rcaron" unicode="&#x159;" horiz-adv-x="332" 
d="M234 633h33l-72 -83h-54l-74 83h34l67 -59z" />
    <glyph glyph-name="Sacute" unicode="&#x15a;" horiz-adv-x="601" 
d="M329 -13q-32 0 -69 8q-107 25 -201 107l26 30q63 -54 128.5 -81.5t114 -25t89.5 17.5q44 20 68 58t24 87q0 73 -71 113q-46 25 -120 38q-8 2 -18 4q-1 0 -22 5q-88 18 -130 42q-82 48 -82 141q0 53 30 96q28 41 79 66q68 32 158 16q98 -17 184 -88l-25 -31
q-75 62 -154.5 80.5t-145.5 -12.5q-41 -20 -64 -53.5t-22 -73.5q0 -36 15 -62t43.5 -41.5t55.5 -24t66 -16.5q3 -1 8 -2t8.5 -1.5t6.5 -1.5q4 -1 16 -3q85 -17 133 -43q42 -23 64 -56q27 -41 27 -92q0 -63 -31 -109q-29 -45 -84 -70q-50 -22 -105 -22zM378 886l-78 -101h-20
l46 101h52z" />
    <glyph glyph-name="sacute" unicode="&#x15b;" horiz-adv-x="417" 
d="M287 632l-78 -101h-20l46 101h52z" />
    <glyph glyph-name="Scedilla" unicode="&#x15e;" horiz-adv-x="601" 
d="M329 -13q-32 0 -69 8q-107 25 -201 107l26 30q63 -54 128.5 -81.5t114 -25t89.5 17.5q44 20 68 58t24 87q0 73 -71 113q-46 25 -120 38q-8 2 -18 4q-1 0 -22 5q-88 18 -130 42q-82 48 -82 141q0 53 30 96q28 41 79 66q68 32 158 16q98 -17 184 -88l-25 -31
q-75 62 -154.5 80.5t-145.5 -12.5q-41 -20 -64 -53.5t-22 -73.5q0 -36 15 -62t43.5 -41.5t55.5 -24t66 -16.5q3 -1 8 -2t8.5 -1.5t6.5 -1.5q4 -1 16 -3q85 -17 133 -43q42 -23 64 -56q27 -41 27 -92q0 -63 -31 -109q-29 -45 -84 -70q-50 -22 -105 -22zM251 -89l78 101h20
l-46 -101h-52z" />
    <glyph glyph-name="scedilla" unicode="&#x15f;" horiz-adv-x="413" 
d="M157 -89l78 101h20l-46 -101h-52z" />
    <glyph glyph-name="Scaron" unicode="&#x160;" horiz-adv-x="601" 
d="M329 -13q-32 0 -69 8q-107 25 -201 107l26 30q63 -54 128.5 -81.5t114 -25t89.5 17.5q44 20 68 58t24 87q0 73 -71 113q-46 25 -120 38q-8 2 -18 4q-1 0 -22 5q-88 18 -130 42q-82 48 -82 141q0 53 30 96q28 41 79 66q68 32 158 16q98 -17 184 -88l-25 -31
q-75 62 -154.5 80.5t-145.5 -12.5q-41 -20 -64 -53.5t-22 -73.5q0 -36 15 -62t43.5 -41.5t55.5 -24t66 -16.5q3 -1 8 -2t8.5 -1.5t6.5 -1.5q4 -1 16 -3q85 -17 133 -43q42 -23 64 -56q27 -41 27 -92q0 -63 -31 -109q-29 -45 -84 -70q-50 -22 -105 -22zM344 889h33l-72 -83
h-54l-74 83h34l67 -59z" />
    <glyph glyph-name="scaron" unicode="&#x161;" horiz-adv-x="417" 
d="M259 633h33l-72 -83h-54l-74 83h34l67 -59z" />
    <glyph glyph-name="Tcaron" unicode="&#x164;" horiz-adv-x="498" 
d="M473 712v-38h-203v-674h-40v674h-203v38h446zM315 887h33l-72 -83h-54l-74 83h34l67 -59z" />
    <glyph glyph-name="tcaron" unicode="&#x165;" horiz-adv-x="355" 
d="M239 608h-36l51 107h68z" />
    <glyph glyph-name="Umacron" unicode="&#x16a;" horiz-adv-x="678" 
d="M574 712h40v-460q0 -112 -80 -192q-79 -79 -193 -79q-115 0 -192 79q-80 78 -80 192v460h40v-460q0 -96 68 -164.5t164 -68.5t164.5 68.5t68.5 164.5v460zM484 822h-284v32h284v-32z" />
    <glyph glyph-name="umacron" unicode="&#x16b;" horiz-adv-x="522" 
d="M405 568h-284v32h284v-32z" />
    <glyph glyph-name="Ubreve" unicode="&#x16c;" horiz-adv-x="678" 
d="M574 712h40v-460q0 -112 -80 -192q-79 -79 -193 -79q-115 0 -192 79q-80 78 -80 192v460h40v-460q0 -96 68 -164.5t164 -68.5t164.5 68.5t68.5 164.5v460zM346 803q-30 0 -55 19q-23 18 -25 47h34q2 -13 15.5 -24t30.5 -11t30.5 11t15.5 24h33q-2 -31 -24 -47
q-28 -19 -55 -19z" />
    <glyph glyph-name="ubreve" unicode="&#x16d;" horiz-adv-x="522" 
d="M261 549q-30 0 -55 19q-23 18 -25 47h34q2 -13 15.5 -24t30.5 -11t30.5 11t15.5 24h33q-2 -31 -24 -47q-28 -19 -55 -19z" />
    <glyph glyph-name="Uring" unicode="&#x16e;" horiz-adv-x="678" 
d="M574 712h40v-460q0 -112 -80 -192q-79 -79 -193 -79q-115 0 -192 79q-80 78 -80 192v460h40v-460q0 -96 68 -164.5t164 -68.5t164.5 68.5t68.5 164.5v460zM343 786q-26 0 -45 18t-19 43t19 43t45 18t44.5 -18t18.5 -43t-18.5 -43t-44.5 -18zM343 883q-15 0 -26 -11
t-11 -25q0 -15 11 -25.5t26 -10.5t25.5 10.5t10.5 25.5t-10.5 25.5t-25.5 10.5z" />
    <glyph glyph-name="uring" unicode="&#x16f;" horiz-adv-x="522" 
d="M261 532q-26 0 -45 18t-19 43t19 43t45 18t44.5 -18t18.5 -43t-18.5 -43t-44.5 -18zM261 629q-15 0 -26 -11t-11 -25q0 -15 11 -25.5t26 -10.5t25.5 10.5t10.5 25.5t-10.5 25.5t-25.5 10.5z" />
    <glyph glyph-name="Ydieresis" unicode="&#x178;" horiz-adv-x="625" 
d="M313 406l218 306h47l-246 -342v-370h-40v370l-244 342h47zM239 814q-13 0 -22 9.5t-9 22.5q0 12 9 21.5t22 9.5t22.5 -9.5t9.5 -21.5q0 -13 -9.5 -22.5t-22.5 -9.5zM381 814q-13 0 -22 9.5t-9 22.5q0 12 9 21.5t22 9.5t22.5 -9.5t9.5 -21.5q0 -13 -9.5 -22.5t-22.5 -9.5z
" />
    <glyph glyph-name="Zacute" unicode="&#x179;" horiz-adv-x="570" 
d="M99 38h430v-38h-478v38l430 636h-430v38h478v-38zM389 886l-78 -101h-20l46 101h52z" />
    <glyph glyph-name="zacute" unicode="&#x17a;" horiz-adv-x="407" 
d="M300 632l-78 -101h-20l46 101h52z" />
    <glyph glyph-name="Zdotaccent" unicode="&#x17b;" horiz-adv-x="570" 
d="M99 38h430v-38h-478v38l430 636h-430v38h478v-38zM290 812q-14 0 -24 10t-10 24t10 24.5t24 10.5t24.5 -10t10.5 -25q0 -14 -10 -24t-25 -10z" />
    <glyph glyph-name="zdotaccent" unicode="&#x17c;" horiz-adv-x="407" 
d="M204 558q-14 0 -24 10t-10 24t10 24.5t24 10.5t24.5 -10t10.5 -25q0 -14 -10 -24t-25 -10z" />
    <glyph glyph-name="Zcaron" unicode="&#x17d;" horiz-adv-x="570" 
d="M99 38h430v-38h-478v38l430 636h-430v38h478v-38zM364 887h33l-72 -83h-54l-74 83h34l67 -59z" />
    <glyph glyph-name="zcaron" unicode="&#x17e;" horiz-adv-x="407" 
d="M273 633h33l-72 -83h-54l-74 83h34l67 -59z" />
    <glyph glyph-name="gacute" unicode="&#x1f5;" horiz-adv-x="548" 
d="M366 632l-78 -101h-20l46 101h52z" />
    <glyph glyph-name="circumflex" unicode="&#x2c6;" horiz-adv-x="283" 
d="M74 545h-33l72 83h54l74 -83h-34l-67 59z" />
    <glyph glyph-name="caron" unicode="&#x2c7;" horiz-adv-x="278" 
d="M205 633h33l-72 -83h-54l-74 83h34l67 -59z" />
    <glyph glyph-name="breve" unicode="&#x2d8;" horiz-adv-x="233" 
d="M117 549q-30 0 -55 19q-23 18 -25 47h34q2 -13 15.5 -24t30.5 -11t30.5 11t15.5 24h33q-2 -31 -24 -47q-28 -19 -55 -19z" />
    <glyph glyph-name="dotaccent" unicode="&#x2d9;" horiz-adv-x="181" 
d="M90 558q-14 0 -24 10t-10 24t10 24.5t24 10.5t24.5 -10t10.5 -25q0 -14 -10 -24t-25 -10z" />
    <glyph glyph-name="ring" unicode="&#x2da;" horiz-adv-x="219" 
d="M109 532q-26 0 -45 18t-19 43t19 43t45 18t44.5 -18t18.5 -43t-18.5 -43t-44.5 -18zM109 629q-15 0 -26 -11t-11 -25q0 -15 11 -25.5t26 -10.5t25.5 10.5t10.5 25.5t-10.5 25.5t-25.5 10.5z" />
    <glyph glyph-name="ogonek" unicode="&#x2db;" horiz-adv-x="312" 
d="M154 -195l-31 4q-31 8 -54 29q-25 22 -33 50q-12 45 2.5 83t64.5 90l38 -39q-15 -16 -25 -29t-18 -29t-7.5 -33t9.5 -33q19 -36 61 -36q45 0 92 41l33 -32q-40 -39 -72 -52q-36 -14 -60 -14z" />
    <glyph glyph-name="tilde" unicode="&#x2dc;" horiz-adv-x="267" 
d="M168 552q-17 0 -41 16q-1 0 -2 1l-2 2q-15 7 -20 8h-3q-15 0 -30 -20l-28 17q25 36 61 36q15 0 45 -20q7 -5 19 -7h4q16 0 30 20l28 -18q-25 -35 -61 -35z" />
    <glyph glyph-name="hungarumlaut" unicode="&#x2dd;" horiz-adv-x="258" 
d="M144 632l-78 -101h-20l46 101h52zM218 632l-78 -101h-20l46 101h52z" />
    <glyph glyph-name="endash" unicode="&#x2013;" horiz-adv-x="542" 
d="M492 213h-443v32h443v-32z" />
    <glyph glyph-name="emdash" unicode="&#x2014;" horiz-adv-x="899" 
d="M850 213h-801v32h801v-32z" />
    <glyph glyph-name="quotesinglbase" unicode="&#x201a;" horiz-adv-x="161" 
d="M100 -38v-138h-39v138h39z" />
    <glyph glyph-name="quotedblbase" unicode="&#x201e;" horiz-adv-x="242" 
d="M96 -38v-138h-39v138h39zM185 -38v-138h-40v138h40z" />
    <glyph glyph-name="bullet" unicode="&#x2022;" horiz-adv-x="266" 
d="M189 230q0 -23 -16.5 -39.5t-39.5 -16.5q-24 0 -40.5 16.5t-16.5 39.5q0 24 16.5 40.5t40.5 16.5q23 0 39.5 -16.5t16.5 -40.5z" />
    <glyph glyph-name="ellipsis" unicode="&#x2026;" horiz-adv-x="491" 
d="M246 -5q-14 0 -24 10t-10 24t10 24.5t24 10.5t24.5 -10t10.5 -25q0 -14 -10 -24t-25 -10zM144 -5q-14 0 -24 10t-10 24t10 24.5t24 10.5t24.5 -10t10.5 -25q0 -14 -10 -24t-25 -10zM348 -5q-14 0 -24 10t-10 24t10 24.5t24 10.5t24.5 -10t10.5 -25q0 -14 -10 -24t-25 -10
z" />
    <glyph glyph-name="perthousand" unicode="&#x2030;" horiz-adv-x="957" 
d="M222 0h-43l275 712h42zM463 0q-42 0 -72 30t-30 73t30 73t72 30q43 0 73 -30t30 -73t-30 -73t-73 -30zM463 170q-27 0 -46.5 -19.5t-19.5 -47.5t19.5 -47.5t46.5 -19.5q28 0 47.5 19.5t19.5 47.5t-19.5 47.5t-47.5 19.5zM213 506q-43 0 -73 30t-30 72q0 43 30 73t73 30
q42 0 72.5 -30t30.5 -73q0 -42 -30.5 -72t-72.5 -30zM213 675q-28 0 -47.5 -19.5t-19.5 -47.5q0 -27 19.5 -46.5t47.5 -19.5t47.5 19.5t19.5 46.5q0 28 -19.5 47.5t-47.5 19.5zM714 0q-42 0 -72 30t-30 73t30 73t72 30q43 0 73 -30t30 -73t-30 -73t-73 -30zM714 170
q-27 0 -46.5 -19.5t-19.5 -47.5t19.5 -47.5t46.5 -19.5q28 0 47.5 19.5t19.5 47.5t-19.5 47.5t-47.5 19.5z" />
    <glyph glyph-name="fraction" unicode="&#x2044;" horiz-adv-x="386" 
d="M78 0h-43l275 712h42z" />
    <glyph glyph-name="Euro" unicode="&#x20ac;" horiz-adv-x="623" 
d="M581 39l17 -36q-48 -14 -106 -14q-77 0 -145 28q-65 27 -119 80q-52 51 -80 119q-19 46 -24 86h-61v36h57q-1 8 -1 23q0 28 5 61h-61v36h69q4 16 16 48q28 66 80 119q54 53 119 80t145 27q55 0 103 -13l-16 -36q-42 12 -87 12q-111 0 -199 -66.5t-120 -170.5h249v-36
h-257q-6 -30 -6 -61q0 -15 1 -23h262v-36h-258q21 -118 113.5 -196.5t214.5 -78.5q47 0 89 12z" />
    <glyph glyph-name="minus" unicode="&#x2212;" horiz-adv-x="400" 
d="M350 213h-301v32h301v-32z" />
    <glyph glyph-name="CR" horiz-adv-x="230" 
 />
    <glyph glyph-name="Imacron" horiz-adv-x="270" 
d="M155 712v-712h-40v712h40zM277 822h-284v32h284v-32z" />
    <glyph glyph-name="ibreve" horiz-adv-x="216" 
d="M87 0v458h40v-458h-40zM109 549q-30 0 -55 19q-23 18 -25 47h34q2 -13 15.5 -24t30.5 -11t30.5 11t15.5 24h33q-2 -31 -24 -47q-28 -19 -55 -19z" />
    </font>
</defs>
</svg>
